<svg xmlns="http://www.w3.org/2000/svg" viewBox="0 0 171.73 278.05"><defs><style>.cls-1{fill:#ff1d25;}</style></defs><title>golden-ratio-vertical</title><g id="Layer_2" data-name="Layer 2"><g id="Layer_1-2" data-name="Layer 1"><g id="qeffco.tif"><path class="cls-1" d="M171.73,278.05H0V0H171.73ZM171,106.84H1.07C.79,204.71,83.72,278.62,171,276.73ZM105.64,1.14C48,0-.3,50.08,1.06,105.74c.67.06,1.36.18,2.06.18q50,0,100,0c2.23,0,2.68-.79,2.66-2.82-.11-9.33-.09-18.66-.09-28q0-35.86,0-71.72C105.77,2.73,105.69,2,105.64,1.14Zm41.74,276.3C66.19,260.85,17.2,211.83.63,131v146.4Zm23.13-212C171.6,30.22,140-.09,106.55,1.23V65.38ZM.46,87.11C11.8,40.78,40.44,12,86.76.68A8.19,8.19,0,0,0,84.08.29C57.22.29,30.36.33,3.5.24.85.23.43,1.17.44,3.5q.1,38.14,0,76.27Q.46,83.44.46,87.11ZM170.53,66.35H131.65v39C153,106.06,171.39,86.51,170.53,66.35ZM120.87.54c25.95,7.66,42.49,24.4,50,50.31.21-15.93.16-31.72.27-47.52,0-2.38-.64-3-3-3-15.08.1-30.16,0-45.23,0C122.22.35,121.55.47,120.87.54Zm-14,80.88c-1.19,12,11.78,25.11,23.62,23.88V81.42ZM171,77.56c-4.95,13.72-14.29,22.93-27.81,28.18H171Zm-64,2.92h13.64V66.82C113.17,66.52,106.37,73.4,107,80.48Zm14.85,25.29c-7-3.39-12-8.72-15.35-16.46v16.46Zm8.49-30.25c-.49-5.43-4.23-9-8.79-8.6v8.6Zm-23.88-1.61-.68-1,6.92-6.5h-6.24Zm19.12,6.63V76.61h-4v3.93Zm1-4v3.57l.73.51,3.45-3.45-.48-.63Zm1.21-10.21,2.82,4.27V66.28Z"/></g></g></g></svg>