<svg xmlns="http://www.w3.org/2000/svg" viewBox="0 0 278.05 171.73"><defs><style>.cls-1{fill:#ff1d25;}</style></defs><title>golden-ratio</title><g id="Layer_2" data-name="Layer 2"><g id="Layer_1-2" data-name="Layer 1"><g id="qeffco.tif"><path class="cls-1" d="M278.05,0V171.73H0V0ZM106.84.77V170.66C204.71,170.94,278.62,88,276.73.77ZM1.14,66.09C0,123.69,50.08,172,105.74,170.67c.06-.67.18-1.36.18-2.06q0-50,0-100c0-2.23-.79-2.68-2.82-2.66-9.33.11-18.66.09-28,.09L3.43,66C2.73,66,2,66,1.14,66.09Zm276.3-41.74C260.85,105.55,211.83,154.53,131,171.1h146.4ZM65.38,1.22C30.22.13-.09,31.75,1.23,65.18H65.38Zm21.73,170C40.78,159.93,12,131.29.68,85a8.19,8.19,0,0,0-.39,2.67c0,26.86,0,53.72-.05,80.58,0,2.65.93,3.07,3.27,3.06q38.14-.1,76.27,0ZM66.35,1.2V40.08h39C106.06,18.78,86.51.34,66.35,1.2ZM.54,50.86C8.2,24.91,24.94,8.37,50.85.85,34.92.64,19.12.69,3.33.59c-2.38,0-3,.64-3,3,.1,15.08,0,30.16,0,45.23C.35,49.51.47,50.18.54,50.86Zm80.88,14c12,1.19,25.11-11.78,23.88-23.62H81.42ZM77.56.76C91.28,5.71,100.49,15,105.74,28.56V.76Zm2.92,64V51.09H66.82C66.52,58.56,73.4,65.36,80.48,64.73Zm25.29-14.85c-3.39,7-8.72,12-16.46,15.35h16.46ZM75.52,41.39c-5.43.49-9,4.23-8.6,8.79h8.6ZM73.91,65.27l-1,.68L66.37,59v6.24Zm6.63-19.12H76.61v4h3.93Zm-4-1h3.57l.51-.73L77.13,41l-.63.48ZM66.28,44l4.27-2.82H66.28Z"/></g></g></g></svg>