<svg id="Layer_1" data-name="Layer 1" xmlns="http://www.w3.org/2000/svg" viewBox="0 0 28.85 28.85"><title>Artboard 3</title><path d="M20.3,9.39l.6-.6a0,0,0,0,0,0-.06l-.82-.82a0,0,0,0,0-.06,0l-.63.63-.07-.05a7.06,7.06,0,0,0-3.72-1.38h0a.26.26,0,0,0-.25.19.23.23,0,0,0,.09.27,6,6,0,0,1,1.2,1.1,1,1,0,0,0,.74.36,2.39,2.39,0,0,1,1,.33l.12.07L14.43,13.5,10.34,9.42l.12-.07a2.39,2.39,0,0,1,1-.33,1,1,0,0,0,.74-.36,6,6,0,0,1,1.2-1.1.23.23,0,0,0,.09-.27.26.26,0,0,0-.25-.19h0A7.06,7.06,0,0,0,9.54,8.49l-.07.05-.63-.63a0,0,0,0,0-.06,0L8,8.73a0,0,0,0,0,0,.06l.6.6-.06.07a7.12,7.12,0,0,0-1.75,4.13.05.05,0,0,0,0,0l0,0,.4,0h0a.05.05,0,0,0,.05,0A11.08,11.08,0,0,1,9.3,10.28l.07-.08,4.17,4.17L8,20A0,0,0,0,0,8,20l.82.82a0,0,0,0,0,.06,0l5.59-5.59L20,20.85a0,0,0,0,0,.06,0l.82-.82a0,0,0,0,0,0-.06L15.3,14.38l4.17-4.17.07.08a11.08,11.08,0,0,1,2.06,3.36.05.05,0,0,0,0,0l.41,0,0,0a.05.05,0,0,0,0,0,7.12,7.12,0,0,0-1.75-4.13Z"/></svg>