<svg id="Layer_1" data-name="Layer 1" xmlns="http://www.w3.org/2000/svg" viewBox="0 0 49.94 49.94"><defs><style>.cls-1{fill:#1f1a0d;}</style></defs><title>Artboard 2</title><path class="cls-1" d="M34.74,16.58l1-1a.07.07,0,0,0,0-.1l-1.36-1.36a.06.06,0,0,0-.09,0l-1.05,1.05-.12-.09a11.75,11.75,0,0,0-6.19-2.3h0a.43.43,0,0,0-.41.31.39.39,0,0,0,.16.45,10,10,0,0,1,2,1.82,1.74,1.74,0,0,0,1.24.6,4,4,0,0,1,1.72.55l.19.11L25,23.44l-6.81-6.81.19-.11A4,4,0,0,1,20.07,16a1.74,1.74,0,0,0,1.24-.6,10,10,0,0,1,2-1.82.39.39,0,0,0,.16-.45.43.43,0,0,0-.41-.31h0a11.75,11.75,0,0,0-6.19,2.3l-.12.09-1.05-1.05a.06.06,0,0,0-.09,0L14.2,15.49a.07.07,0,0,0,0,.1l1,1-.1.12a11.86,11.86,0,0,0-2.91,6.87.09.09,0,0,0,.08.1l.67,0h0a.09.09,0,0,0,.09-.05,18.44,18.44,0,0,1,3.42-5.59l.12-.13,6.95,6.95L14.2,34.2a.07.07,0,0,0,0,.1l1.36,1.36a.06.06,0,0,0,.09,0L25,26.35l9.31,9.31a.06.06,0,0,0,.09,0l1.36-1.36a.07.07,0,0,0,0-.1l-9.31-9.31,6.95-6.95.12.13a18.44,18.44,0,0,1,3.42,5.59.09.09,0,0,0,.08.06l.67,0a.09.09,0,0,0,.08-.1,11.86,11.86,0,0,0-2.91-6.87Z"/><path class="cls-1" d="M25,1.66A23.3,23.3,0,1,1,1.66,25,23.33,23.33,0,0,1,25,1.66M25,0a25,25,0,1,0,25,25A25,25,0,0,0,25,0Z"/></svg>