<svg id="Layer_1" data-name="Layer 1" xmlns="http://www.w3.org/2000/svg" viewBox="0 0 165.86 83.11"><defs><style>.cls-1{fill:#1f1a0d;}</style></defs><title>Artboard 3</title><path class="cls-1" d="M91,49.74a.62.62,0,0,1-.56-.36L84.9,37.7l0,0c-.26-.67-.06-1.72,3.83-4a83.43,83.43,0,0,1,20.36-7.88c4.39-.95,5.25-.3,5.51.36v0l5.55,18.1a.62.62,0,1,1-1.19.36l-5.52-18c-.86-.49-6.36.47-14.35,3.57s-12.71,6.08-13,7l5.47,11.59a.62.62,0,0,1-.56.89Z"/><path class="cls-1" d="M94.63,57.51a.62.62,0,0,1-.56-.36l-1.92-4.07a.62.62,0,0,1,1.13-.53l1.92,4.07a.62.62,0,0,1-.56.89Z"/><path class="cls-1" d="M97.92,64.47a.62.62,0,0,1-.56-.36l-1.77-3.75a.62.62,0,0,1,1.13-.53l1.77,3.75a.62.62,0,0,1-.56.89Z"/><path class="cls-1" d="M108.31,83.1c-1.26,0-2.17-.28-2.47-1L98.32,66.17a.62.62,0,0,1,1.13-.53l7.53,16,0,0c.42.55,4.61.28,11.11-2.24s9.78-5.13,9.72-5.83l-1-3.28a.62.62,0,1,1,1.19-.36l1,3.23c.35,1-.57,2.16-2.82,3.64a42.11,42.11,0,0,1-7.62,3.76C115.59,81.71,111.11,83.1,108.31,83.1Z"/><path class="cls-1" d="M104.2,42.55A136.79,136.79,0,0,1,87,41.39a.62.62,0,1,1,.16-1.23c6.6.85,19.42,2,31.23.12a.62.62,0,1,1,.2,1.23A92,92,0,0,1,104.2,42.55Z"/><path class="cls-1" d="M113.45,71.93a49.26,49.26,0,0,1-5.94-.37,1.37,1.37,0,0,1,0-2.73A48.55,48.55,0,0,0,118.12,67a86.18,86.18,0,0,1-21.92-.88,1.37,1.37,0,0,1,.15-2.72c8.34-.61,14.47-1.53,18.95-2.86-6.23.48-17,.93-26-.58a1.62,1.62,0,0,1,.15-3.22A178.46,178.46,0,0,0,110.48,54c-7.62.43-16.76.24-24.06-2a1.62,1.62,0,0,1,.36-3.17c11.11-.82,23.84-2,34.4-5.37a.62.62,0,0,1,.38,1.18c-10.69,3.43-23.51,4.6-34.69,5.43a.36.36,0,0,0-.35.34.35.35,0,0,0,.26.4c8.81,2.71,20.42,2.36,28.6,1.59a.87.87,0,0,1,.3,1.71A156,156,0,0,1,89.51,58a.38.38,0,0,0,0,.75c10.61,1.78,23.59.81,28.69.31a.87.87,0,0,1,.41,1.68c-4.73,1.92-11.76,3.17-22.14,3.92a.11.11,0,0,0-.12.12.11.11,0,0,0,.11.13,87.57,87.57,0,0,0,24,.66.87.87,0,0,1,.48,1.65c-3.55,1.81-8.67,2.47-13.22,2.89,0,0-.12,0-.12.13a.12.12,0,0,0,.12.13c13.07,1.56,24.28-2.66,31.58-6,12-5.46,18.25-1.31,21,.9a6,6,0,0,0-.64-7.1.62.62,0,0,1,.13-1,12.09,12.09,0,0,0,4.77-4.94,11.17,11.17,0,0,0-6-2.8.62.62,0,0,1-.46-.93,5.52,5.52,0,0,0-1.33-6.88c-2.71,3.87-8.26,5.32-14.07,3.59A41.5,41.5,0,0,1,137,42.94a29.79,29.79,0,0,0-14.09-3.37h-.58c-6.91,0-10.72,0-21.3-2.74a.14.14,0,0,0-.14,0,.1.1,0,0,0,0,.11c.6,1.81,2.81,3.47,5.77,4.32a.62.62,0,1,1-.34,1.2c-3.4-1-5.87-2.89-6.61-5.12A1.34,1.34,0,0,1,100,36a1.39,1.39,0,0,1,1.36-.4c10.42,2.69,14,2.69,21,2.7h.58a30.86,30.86,0,0,1,14.6,3.49A39.93,39.93,0,0,0,143,44c5.55,1.65,10.79.19,13-3.64a.62.62,0,0,1,.92-.18,6.85,6.85,0,0,1,2.54,8.14,12.9,12.9,0,0,1,6.17,3.3.62.62,0,0,1,.14.73,13.24,13.24,0,0,1-4.86,5.53,7.42,7.42,0,0,1,0,8.66.62.62,0,0,1-.93.14c-3.71-3.14-9.37-6.12-20.21-1.19C128.34,70.67,119.75,71.93,113.45,71.93Z"/><path class="cls-1" d="M150.14,62.87H150a.62.62,0,0,1-.52-.71c1.31-8.46-.27-12.68-2.16-16.59a.62.62,0,0,1,1.12-.54c2,4.1,3.63,8.51,2.27,17.32A.62.62,0,0,1,150.14,62.87Z"/><path class="cls-1" d="M152.56,63.05h-.1a.62.62,0,0,1-.51-.72c1.42-8.53.47-12.61-1.79-17.16a.62.62,0,0,1,1.11-.55c2.32,4.67,3.37,9.1,1.9,17.92A.62.62,0,0,1,152.56,63.05Z"/><path class="cls-1" d="M74.89,49.74a.62.62,0,0,1-.56-.89l5.47-11.59c-.3-.94-5-3.93-13-7s-13.49-4.06-14.35-3.57l-5.52,18a.62.62,0,1,1-1.19-.36l5.55-18.1v0c.26-.67,1.12-1.31,5.51-.36a73.54,73.54,0,0,1,10.44,3.27,73.51,73.51,0,0,1,9.92,4.61C81,35.94,81.23,37,81,37.66l0,0L75.45,49.39A.62.62,0,0,1,74.89,49.74Z"/><path class="cls-1" d="M71.23,57.51a.62.62,0,0,1-.56-.89l1.92-4.07a.62.62,0,0,1,1.13.53l-1.92,4.07A.62.62,0,0,1,71.23,57.51Z"/><path class="cls-1" d="M67.94,64.47a.62.62,0,0,1-.56-.89l1.77-3.75a.62.62,0,0,1,1.13.53L68.5,64.12A.62.62,0,0,1,67.94,64.47Z"/><path class="cls-1" d="M57.6,83.11a13.87,13.87,0,0,1-2.12-.19,42.13,42.13,0,0,1-8.17-2.35C43,78.91,36,75.49,36.87,73.16l1-3.23a.62.62,0,1,1,1.19.36l-1,3.25v0c-.06.69,3.23,3.31,9.72,5.82s10.69,2.79,11.11,2.23l7.54-16a.62.62,0,0,1,1.13.53L60,82.11C59.75,82.78,58.95,83.11,57.6,83.11Z"/><path class="cls-1" d="M61.65,42.55a91.93,91.93,0,0,1-14.33-1,.62.62,0,1,1,.2-1.23c11.8,1.88,24.63.73,31.23-.12a.62.62,0,1,1,.16,1.23A136.79,136.79,0,0,1,61.65,42.55Z"/><path class="cls-1" d="M52.52,71.91c-10.86,0-20.09-3.55-26.43-6.43-10.84-4.93-16.5-2-20.21,1.19A.62.62,0,0,1,5,66.53a7.42,7.42,0,0,1,0-8.66A13.24,13.24,0,0,1,.06,52.35a.62.62,0,0,1,.14-.73,12.9,12.9,0,0,1,6.17-3.3,6.85,6.85,0,0,1,2.54-8.14.62.62,0,0,1,.92.18c2.24,3.83,7.48,5.29,13,3.64a40,40,0,0,0,5.49-2.19A30.85,30.85,0,0,1,43,38.32h.58c7,0,10.57,0,21-2.7a1.39,1.39,0,0,1,1.36.4,1.34,1.34,0,0,1,.3,1.35c-.74,2.23-3.21,4.15-6.61,5.12a.62.62,0,1,1-.34-1.2c3-.85,5.17-2.5,5.77-4.32a.1.1,0,0,0,0-.11.14.14,0,0,0-.14,0c-10.58,2.73-14.38,2.73-21.3,2.74H43a29.79,29.79,0,0,0-14.09,3.37,41.53,41.53,0,0,1-5.65,2.26c-5.82,1.73-11.36.29-14.07-3.59a5.46,5.46,0,0,0-2,4.46,5.87,5.87,0,0,0,.66,2.43.62.62,0,0,1-.46.93,11.18,11.18,0,0,0-6,2.8,12.09,12.09,0,0,0,4.77,4.94.62.62,0,0,1,.13,1,6,6,0,0,0-.64,7.1c2.71-2.21,8.94-6.36,21-.9,7.3,3.32,18.52,7.55,31.58,6a.12.12,0,0,0,.12-.13c0-.12-.08-.12-.12-.13C53.65,69.65,48.53,69,45,67.18a.87.87,0,0,1,.48-1.65,87.52,87.52,0,0,0,24-.66.11.11,0,0,0,.11-.13.11.11,0,0,0-.12-.12C59,63.86,52,62.61,47.28,60.69A.87.87,0,0,1,47.7,59c5.09.5,18.08,1.46,28.69-.31a.38.38,0,0,0,0-.75A156,156,0,0,1,50.17,54.1a.87.87,0,0,1,.3-1.71c8.18.77,19.79,1.13,28.6-1.59a.35.35,0,0,0,.26-.4.36.36,0,0,0-.35-.34c-11.18-.83-24-2-34.69-5.43a.62.62,0,0,1,.38-1.18C55.23,46.84,68,48,79.07,48.82A1.62,1.62,0,0,1,79.44,52C72.13,54.24,63,54.44,55.37,54a178.53,178.53,0,0,0,21.07,2.7,1.62,1.62,0,0,1,.15,3.22c-9.06,1.52-19.79,1.06-26,.58,4.48,1.33,10.61,2.25,18.95,2.86a1.37,1.37,0,0,1,.15,2.72A86.17,86.17,0,0,1,47.74,67a48.52,48.52,0,0,0,10.57,1.85,1.37,1.37,0,0,1,0,2.73A48.89,48.89,0,0,1,52.52,71.91Z"/><path class="cls-1" d="M15.71,62.87a.62.62,0,0,1-.61-.53c-1.37-8.81.29-13.22,2.27-17.32a.62.62,0,0,1,1.12.54C16.6,49.48,15,53.69,16.33,62.15a.62.62,0,0,1-.52.71Z"/><path class="cls-1" d="M13.3,63.05a.62.62,0,0,1-.61-.52c-1.47-8.82-.42-13.24,1.9-17.92a.62.62,0,0,1,1.11.55c-2.26,4.55-3.21,8.63-1.79,17.16a.62.62,0,0,1-.51.72Z"/><path class="cls-1" d="M87.75,18.46h0a4.3,4.3,0,0,1-4.3-4.3h0a.54.54,0,0,0-.46-.54.52.52,0,0,0-.57.51v0a4.3,4.3,0,0,1-4.3,4.3h0a.54.54,0,0,0-.54.46.52.52,0,0,0,.51.57h0a4.3,4.3,0,0,1,4.3,4.3h0a.54.54,0,0,0,.46.54.52.52,0,0,0,.57-.51v0a4.3,4.3,0,0,1,4.3-4.3h0a.52.52,0,0,0,.5-.64A.54.54,0,0,0,87.75,18.46Z"/><path class="cls-1" d="M82.93,24.52h-.07a.71.71,0,0,1-.62-.72,4.13,4.13,0,0,0-4.12-4.12.71.71,0,0,1-.54-.23.7.7,0,0,1-.18-.53.71.71,0,0,1,.72-.62,4.13,4.13,0,0,0,4.12-4.12.71.71,0,0,1,.23-.54.69.69,0,0,1,.53-.18.71.71,0,0,1,.62.72,4.13,4.13,0,0,0,4.12,4.12.71.71,0,0,1,.7.53.7.7,0,0,1-.13.59.69.69,0,0,1-.54.26,4.14,4.14,0,0,0-4.15,4.12.71.71,0,0,1-.23.54A.69.69,0,0,1,82.93,24.52Zm0-10.73a.34.34,0,0,0-.23.09.34.34,0,0,0-.11.25,4.48,4.48,0,0,1-4.47,4.5.36.36,0,0,0-.37.31.34.34,0,0,0,.34.38,4.48,4.48,0,0,1,4.5,4.47.36.36,0,0,0,.31.37.34.34,0,0,0,.38-.34,4.48,4.48,0,0,1,4.47-4.5.36.36,0,0,0,.3-.13.34.34,0,0,0,.06-.3.36.36,0,0,0-.36-.26,4.48,4.48,0,0,1-4.47-4.47.36.36,0,0,0-.31-.37Z"/><path class="cls-1" d="M95.45,6.29h0a2.72,2.72,0,0,1-2.72-2.72h0A.54.54,0,0,0,92.26,3a.52.52,0,0,0-.57.51v0A2.72,2.72,0,0,1,89,6.29h0a.54.54,0,0,0-.54.46.52.52,0,0,0,.51.57h0A2.72,2.72,0,0,1,91.69,10h0a.54.54,0,0,0,.46.54.52.52,0,0,0,.57-.51v0a2.72,2.72,0,0,1,2.72-2.72h0A.52.52,0,0,0,96,6.76.54.54,0,0,0,95.45,6.29Z"/><path class="cls-1" d="M92.21,10.77h-.07a.71.71,0,0,1-.62-.72A2.55,2.55,0,0,0,89,7.5a.71.71,0,0,1-.54-.23.7.7,0,0,1-.18-.53A.71.71,0,0,1,89,6.12a2.55,2.55,0,0,0,2.54-2.54A.71.71,0,0,1,91.75,3a.69.69,0,0,1,.53-.17.71.71,0,0,1,.62.72,2.55,2.55,0,0,0,2.54,2.54.71.71,0,0,1,.72.62.69.69,0,0,1-.69.76A2.55,2.55,0,0,0,92.9,10a.71.71,0,0,1-.23.54A.7.7,0,0,1,92.21,10.77Zm0-7.57a.34.34,0,0,0-.34.34A2.9,2.9,0,0,1,89,6.47a.36.36,0,0,0-.37.31.34.34,0,0,0,.34.38A2.9,2.9,0,0,1,91.87,10a.36.36,0,0,0,.31.37.34.34,0,0,0,.38-.34,2.9,2.9,0,0,1,2.89-2.92A.36.36,0,0,0,95.73,7a.34.34,0,0,0,.09-.27.36.36,0,0,0-.37-.31,2.9,2.9,0,0,1-2.89-2.89.36.36,0,0,0-.31-.37Z"/><path class="cls-1" d="M76.92,2.94h0A2.22,2.22,0,0,1,74.71.72h0a.54.54,0,0,0-.46-.54.52.52,0,0,0-.57.51v0a2.22,2.22,0,0,1-2.22,2.22h0a.54.54,0,0,0-.54.46.52.52,0,0,0,.51.57h0a2.22,2.22,0,0,1,2.22,2.22h0a.54.54,0,0,0,.46.54.52.52,0,0,0,.57-.51v0A2.22,2.22,0,0,1,76.92,4h0a.52.52,0,0,0,.51-.57A.54.54,0,0,0,76.92,2.94Z"/><path class="cls-1" d="M74.19,6.91h-.07a.71.71,0,0,1-.62-.72,2,2,0,0,0-2-2,.71.71,0,0,1-.54-.23.7.7,0,0,1-.18-.53.71.71,0,0,1,.72-.62,2,2,0,0,0,2-2,.71.71,0,0,1,.23-.54A.69.69,0,0,1,74.26,0a.71.71,0,0,1,.62.72,2,2,0,0,0,2,2h0a.71.71,0,0,1,.72.62.69.69,0,0,1-.69.76,2.05,2.05,0,0,0-2.07,2,.71.71,0,0,1-.23.54A.69.69,0,0,1,74.19,6.91Zm0-6.56A.34.34,0,0,0,74,.44a.34.34,0,0,0-.11.25,2.4,2.4,0,0,1-2.39,2.42.36.36,0,0,0-.37.31.34.34,0,0,0,.34.38,2.4,2.4,0,0,1,2.42,2.39.36.36,0,0,0,.31.37.35.35,0,0,0,.27-.09.34.34,0,0,0,.11-.25A2.4,2.4,0,0,1,76.92,3.8a.36.36,0,0,0,.28-.11.34.34,0,0,0,.09-.27.36.36,0,0,0-.37-.31A2.39,2.39,0,0,1,74.53.72a.36.36,0,0,0-.31-.37Z"/></svg>
