<svg id="Layer_1" data-name="Layer 1" xmlns="http://www.w3.org/2000/svg" viewBox="0 0 72.18 72.18"><defs><style>.cls-1{fill:#1f1a0d;}</style></defs><title>Artboard 5monolith</title><polygon class="cls-1" points="64.33 56.55 54.37 40.13 17.81 40.13 7.84 56.55 6.56 55.78 16.96 38.63 55.22 38.63 65.62 55.78 64.33 56.55"/><path class="cls-1" d="M43.42,40.13H28.76A.75.75,0,0,1,28,39.3a8.12,8.12,0,0,1,16.15,0,.75.75,0,0,1-.75.83Zm-13.77-1.5H42.53a6.62,6.62,0,0,0-12.88,0Z"/><path class="cls-1" d="M36.09,27.38a.75.75,0,0,1-.75-.75v-5a.75.75,0,1,1,1.5,0v5A.75.75,0,0,1,36.09,27.38Z"/><path class="cls-1" d="M26.54,31.33a.75.75,0,0,1-.53-.22L22.5,27.6a.75.75,0,1,1,1.06-1.06L27.07,30a.75.75,0,0,1-.53,1.28Z"/><path class="cls-1" d="M45.63,31.33A.75.75,0,0,1,45.1,30l3.51-3.51a.75.75,0,1,1,1.06,1.06l-3.51,3.51A.75.75,0,0,1,45.63,31.33Z"/><path class="cls-1" d="M36.09,13a8.53,8.53,0,0,1-7.33-4.18,7.37,7.37,0,0,0,14.67,0A8.53,8.53,0,0,1,36.09,13Z"/><path class="cls-1" d="M36.09,72.18A36.09,36.09,0,1,1,72.18,36.09,36.13,36.13,0,0,1,36.09,72.18Zm0-70.68A34.59,34.59,0,1,0,70.68,36.09,34.63,34.63,0,0,0,36.09,1.5Z"/></svg>