<svg id="Layer_1" data-name="Layer 1" xmlns="http://www.w3.org/2000/svg" viewBox="0 0 62.13 53.81"><defs><style>.cls-1{fill:none;stroke:#1f1a0d;stroke-miterlimit:10;stroke-width:1.49px;}</style></defs><title>Artboard 4</title><polygon class="cls-1" points="31.07 1.49 60.85 53.07 1.29 53.07 31.07 1.49"/><path class="cls-1" d="M20.47,30.7S24.53,24,31.07,24s10.6,6.71,10.6,6.71-4.06,6.71-10.6,6.71S20.47,30.7,20.47,30.7Z"/><path class="cls-1" d="M57,46.43a8.27,8.27,0,0,0-10.38,0,8.27,8.27,0,0,1-10.38,0,8.27,8.27,0,0,0-10.38,0,8.27,8.27,0,0,1-10.38,0,8.27,8.27,0,0,0-10.38,0"/><path class="cls-1" d="M14,31.13a3.91,3.91,0,1,1-3.51,6.11"/><circle class="cls-1" cx="44.23" cy="39.2" r="3.91" transform="translate(-6.85 9.47) rotate(-11.35)"/><path class="cls-1" d="M39.42,16a3.91,3.91,0,1,1-2.53-4.38"/><circle class="cls-1" cx="31.07" cy="30.7" r="3.12" transform="matrix(0.98, -0.2, 0.2, 0.98, -5.44, 6.72)"/></svg>